# xmcd
#
# Track frame offsets:
#	150
#	14312
#	28782
#	42587
#	54692
#	69877
#	82777
#	97835
#	110995
#	121310
#	139412
#	152452
#	168757
#	172775
#	186927
#	199577
#	215192
#	231697
#	246935
#
# Disc length: 3511 seconds
#
# Revision: 0
# Processed by: cddbd v1.4PL0 Copyright (c) Steve Scherf et al.
# Submitted via: EasyCDDAExtractor 5.0.0.0
#
DISCID=080db513
DTITLE=Elmore James - The Complete Fire And Enjoy Recordings [CD3]
DYEAR=1995
DGENRE=Blues
TTITLE0=Hand In Hand (Take 1)
TTITLE1=Hand In Hand (Take 3)
TTITLE2=Hand In Hand (Take 4)
TTITLE3=I've Got A Right To Love My Baby
TTITLE4=Everyday I Have The Blues
TTITLE5=Dust My Broom (Alt. Take)
TTITLE6=It Hurts Me Too
TTITLE7=Talk To Me Baby
TTITLE8=Can't Stop Loving My Baby
TTITLE9=She's Got To Go
TTITLE10=Pickin' The Blues
TTITLE11=Twelve Year Old Boy
TTITLE12=Up Jumped Elmore (False Start)
TTITLE13=Up Jumped Elmore
TTITLE14=Up Jumped Elmore (Black Snake Slide)
TTITLE15=I Believe
TTITLE16=I Gotta Go Now
TTITLE17=Make My Dreams Come True (Alt. Take)
TTITLE18=Back In Mississippi (Studio Conversation)
EXTD=
EXTT0=
EXTT1=
EXTT2=
EXTT3=
EXTT4=
EXTT5=
EXTT6=
EXTT7=
EXTT8=
EXTT9=
EXTT10=
EXTT11=
EXTT12=
EXTT13=
EXTT14=
EXTT15=
EXTT16=
EXTT17=
EXTT18=
PLAYORDER=
